<?xml version="1.0" standalone="no"?>
<!DOCTYPE svg PUBLIC "-//W3C//DTD SVG 20010904//EN"
 "http://www.w3.org/TR/2001/REC-SVG-20010904/DTD/svg10.dtd">
<svg version="1.0" xmlns="http://www.w3.org/2000/svg"
 width="1248.000000pt" height="1248.000000pt" viewBox="0 0 1248.000000 1248.000000"
 preserveAspectRatio="xMidYMid meet">
<metadata>
Created by potrace 1.14, written by Peter Selinger 2001-2017
</metadata>
<g transform="translate(0.000000,1248.000000) scale(0.100000,-0.100000)"
fill="#000000" stroke="none">
<path d="M4826 12053 c1 -236 2 -430 3 -433 1 -5 523 -6 557 -1 8 1 11 31 10
92 -1 49 1 92 6 95 4 3 4 15 0 27 -4 12 -7 163 -6 335 l1 312 -286 0 -287 0 2
-427z"/>
<path d="M5910 12355 c-1 -69 -1 -168 -1 -220 0 -52 0 -191 1 -308 l0 -213
280 0 c201 1 283 4 288 13 5 8 8 705 3 831 l-1 22 -285 0 -285 0 0 -125z"/>
<path d="M6964 12047 l0 -433 286 1 285 0 0 433 1 432 -286 0 -286 0 0 -433z"/>
<path d="M3364 11305 c-2 -5 -2 -134 -1 -285 l2 -275 2830 -1 c1557 0 2835 1
2840 3 6 2 9 25 7 51 -3 51 -4 78 -1 163 1 31 -1 61 -5 67 -3 6 -2 13 3 17 6
3 7 15 3 28 -8 23 -7 85 2 94 2 3 1 15 -3 27 -5 11 -5 30 -1 40 4 11 4 34 0
50 l-6 31 -2833 0 c-1960 1 -2834 -2 -2837 -10z"/>
<path d="M2787 10304 c-1 -1 -29 -5 -62 -8 -33 -4 -67 -9 -75 -11 -8 -2 -31
-7 -50 -10 -62 -10 -180 -46 -253 -76 -40 -17 -78 -31 -85 -33 -7 -1 -18 -8
-24 -14 -7 -7 -16 -12 -21 -12 -8 0 -142 -76 -162 -92 -5 -4 -38 -28 -72 -53
-84 -62 -219 -196 -286 -286 -90 -119 -207 -341 -222 -421 -2 -9 -9 -26 -15
-37 -6 -12 -8 -21 -6 -21 3 0 1 -11 -4 -26 -6 -14 -12 -39 -15 -57 -3 -18 -8
-43 -10 -57 -3 -14 -7 -36 -10 -50 -3 -13 -7 -66 -10 -117 l-6 -93 281 0 280
0 1 38 c0 20 2 45 4 54 2 9 6 34 9 55 3 21 12 61 20 88 9 28 16 52 17 55 31
105 121 248 213 341 55 57 177 152 193 151 4 0 15 5 23 13 20 17 128 64 160
70 3 0 14 6 25 12 11 6 22 11 25 11 3 -1 28 3 55 7 28 5 61 10 75 12 54 8
6788 8 6830 1 25 -5 70 -14 100 -20 30 -7 58 -12 62 -12 3 -1 10 -4 14 -8 4
-5 14 -8 21 -8 34 0 224 -106 288 -160 42 -35 109 -106 137 -141 13 -17 34
-44 46 -60 13 -16 20 -29 16 -29 -4 0 0 -8 9 -17 20 -23 72 -136 88 -193 7
-25 13 -47 14 -50 2 -8 18 -103 21 -125 1 -11 3 -35 3 -52 l1 -33 281 0 281 0
-6 93 c-3 50 -8 102 -10 113 -2 12 -7 38 -10 59 -18 111 -88 313 -142 409 -13
22 -29 52 -36 66 -43 88 -245 322 -344 397 -110 85 -179 129 -289 183 -27 14
-53 29 -56 33 -3 5 -8 8 -10 6 -5 -3 -79 21 -94 30 -5 3 -12 6 -15 7 -3 0 -25
6 -50 14 -25 7 -49 14 -55 16 -68 16 -112 25 -143 29 -20 3 -48 9 -62 12 -22
6 -6877 13 -6883 7z"/>
<path d="M3448 9279 c-6 -4 -10 -32 -9 -63 2 -77 2 -112 0 -177 -1 -31 1 -61
5 -67 3 -6 2 -13 -3 -17 -6 -3 -7 -16 -3 -28 4 -12 6 -33 5 -47 -7 -75 -7
-150 0 -150 4 0 7 -6 7 -12 0 -10 572 -13 2832 -11 l2833 1 1 287 c1 235 -1
285 -12 281 -7 -3 -15 -2 -18 2 -6 9 -48 8 -63 -1 -7 -4 -14 -3 -17 2 -3 4
-24 5 -46 1 -21 -4 -42 -5 -45 -2 -8 8 -114 8 -108 0 2 -5 -6 -4 -19 1 -14 5
-31 5 -40 0 -11 -6 -19 -5 -23 1 -4 7 -12 7 -24 0 -10 -5 -21 -7 -25 -3 -8 9
-115 9 -109 1 2 -5 -6 -4 -19 1 -14 5 -31 5 -40 0 -11 -6 -19 -5 -23 1 -4 7
-12 7 -25 0 -12 -6 -21 -7 -25 0 -4 6 -15 6 -30 0 -16 -6 -25 -6 -25 0 0 6 -9
6 -25 0 -16 -6 -25 -6 -25 0 0 6 -10 6 -26 0 -14 -6 -23 -7 -21 -2 6 8 -50 8
-59 -1 -4 -3 -15 -2 -25 3 -12 7 -20 7 -24 0 -4 -6 -12 -7 -23 -1 -9 5 -26 5
-39 0 -14 -5 -23 -5 -23 1 0 6 -10 6 -26 0 -14 -6 -23 -7 -21 -2 6 8 -50 8
-59 -1 -4 -3 -15 -2 -25 3 -12 7 -20 7 -24 0 -4 -6 -12 -7 -23 -1 -9 5 -26 5
-39 0 -14 -5 -23 -5 -23 1 0 6 -10 6 -26 0 -14 -6 -23 -7 -21 -2 3 4 -8 7 -24
7 -16 0 -29 -3 -29 -7 0 -4 -7 -5 -15 -2 -22 9 -115 10 -115 2 0 -4 -6 -5 -13
-2 -23 9 -98 10 -103 2 -3 -5 -14 -4 -24 2 -13 7 -21 7 -25 0 -4 -6 -12 -7
-23 -1 -9 5 -26 5 -39 0 -14 -5 -23 -5 -23 1 0 6 -10 6 -26 0 -14 -6 -23 -7
-21 -2 6 8 -50 8 -59 -1 -4 -3 -15 -2 -25 3 -12 7 -20 7 -24 0 -4 -6 -12 -7
-23 -1 -9 5 -26 5 -39 0 -14 -5 -23 -5 -23 1 0 6 -10 6 -26 0 -14 -6 -23 -7
-21 -2 6 8 -50 8 -59 -1 -4 -3 -15 -2 -25 3 -11 7 -20 7 -24 0 -3 -5 -15 -6
-28 -1 -13 5 -30 5 -39 0 -11 -6 -19 -5 -23 1 -4 7 -12 7 -24 0 -10 -5 -21 -7
-25 -3 -8 9 -115 9 -109 1 2 -5 -6 -4 -19 1 -14 5 -31 5 -40 0 -11 -6 -19 -5
-23 1 -4 7 -12 7 -24 0 -10 -5 -21 -7 -25 -3 -8 9 -115 9 -110 1 3 -4 -2 -5
-10 -2 -22 9 -136 10 -136 2 0 -4 -6 -5 -13 -2 -23 9 -98 10 -103 2 -3 -5 -14
-4 -24 2 -13 7 -21 7 -25 0 -4 -6 -12 -7 -23 -1 -9 5 -26 5 -39 0 -14 -5 -23
-5 -23 1 0 6 -10 6 -26 0 -14 -6 -23 -7 -21 -2 6 8 -50 8 -59 -1 -4 -3 -15 -2
-25 3 -12 7 -20 7 -24 0 -4 -6 -12 -7 -23 -1 -9 5 -26 5 -39 0 -14 -5 -23 -5
-23 1 0 6 -10 6 -26 0 -14 -6 -23 -7 -21 -2 6 8 -50 8 -59 -1 -4 -3 -15 -2
-25 3 -11 7 -20 7 -24 0 -3 -5 -15 -6 -28 -1 -13 5 -30 5 -39 0 -11 -6 -19 -5
-23 1 -4 7 -12 7 -24 0 -10 -5 -21 -7 -25 -3 -8 9 -115 9 -109 1 2 -5 -6 -4
-19 1 -14 5 -31 5 -40 0 -11 -6 -19 -5 -23 1 -4 7 -12 7 -24 0 -10 -5 -21 -7
-25 -3 -9 10 -115 9 -109 -1 4 -5 0 -6 -7 -1 -14 8 -103 11 -116 3 -5 -3 -18
-2 -29 2 -11 4 -29 4 -40 0 -11 -4 -29 -4 -40 0 -11 4 -29 4 -40 0 -11 -4 -29
-4 -40 0 -11 4 -29 4 -40 0 -11 -4 -29 -4 -40 0 -11 4 -29 4 -40 0 -11 -4 -29
-4 -40 0 -11 4 -29 4 -40 0 -11 -4 -29 -4 -40 0 -11 4 -29 4 -40 0 -11 -4 -29
-4 -40 0 -11 4 -30 3 -43 -1 -13 -5 -21 -6 -19 -1 3 4 -17 7 -44 7 -27 0 -49
-3 -49 -7 0 -4 -11 -3 -25 2 -16 6 -25 6 -25 0 0 -6 -9 -6 -23 -1 -14 5 -30 5
-40 0 -11 -7 -17 -6 -17 0 0 7 -8 7 -25 1 -14 -5 -25 -6 -25 -2 0 4 -13 7 -30
7 -16 0 -30 -3 -30 -7 0 -4 -11 -3 -25 2 -16 6 -25 6 -25 0 0 -6 -9 -6 -23 -1
-14 5 -30 5 -40 0 -11 -7 -17 -6 -17 0 0 7 -8 7 -25 1 -14 -5 -25 -6 -25 -2 0
4 -13 7 -30 7 -16 0 -30 -3 -30 -7 0 -4 -11 -3 -25 2 -16 6 -25 6 -25 0 0 -6
-9 -6 -23 -1 -14 5 -30 5 -40 0 -11 -7 -17 -6 -17 0 0 7 -8 7 -25 1 -14 -5
-25 -6 -25 -2 0 4 -13 7 -30 7 -16 0 -30 -3 -30 -7 0 -4 -11 -3 -25 2 -16 6
-25 6 -25 0 0 -6 -9 -6 -22 -1 -13 5 -33 5 -46 0 -13 -5 -21 -5 -18 -1 5 9
-102 10 -116 1z"/>
<path d="M3795 8319 c-3 -4 -12 -6 -19 -3 -10 4 -14 -4 -14 -30 0 -19 -3 -39
-7 -45 -3 -6 -2 -11 3 -11 6 0 7 -14 2 -35 -4 -19 -4 -51 0 -70 4 -19 4 -37 0
-40 -5 -3 -5 -18 -2 -33 4 -15 6 -40 5 -57 -6 -66 -5 -133 1 -144 4 -6 3 -11
-3 -11 -6 0 -7 -11 -2 -27 6 -26 6 -41 -2 -113 -2 -14 0 -40 4 -58 4 -17 3
-34 -1 -37 -5 -3 -5 -18 -2 -33 4 -15 6 -40 5 -57 -6 -66 -5 -133 1 -144 4 -6
3 -11 -3 -11 -6 0 -7 -11 -2 -27 6 -26 6 -41 -2 -113 -2 -14 0 -40 4 -58 4
-17 3 -34 -1 -37 -5 -3 -5 -18 -2 -33 4 -15 6 -40 5 -57 -6 -66 -5 -133 1
-144 4 -6 3 -11 -3 -11 -6 0 -7 -11 -2 -27 6 -26 6 -41 -2 -113 -2 -14 0 -40
4 -58 4 -17 3 -34 -1 -37 -5 -3 -5 -18 -2 -33 4 -15 6 -40 5 -57 -6 -66 -5
-133 1 -144 4 -6 3 -11 -3 -11 -6 0 -7 -11 -2 -27 6 -26 6 -41 -2 -113 -2 -14
0 -40 4 -58 4 -17 3 -34 -1 -37 -5 -3 -5 -18 0 -34 4 -16 6 -32 4 -34 -5 -5
-8 -94 -4 -112 1 -5 2 -13 1 -17 -2 -15 -3 -133 -1 -143 1 -5 2 -13 1 -17 -2
-15 -3 -133 -1 -143 1 -5 2 -13 1 -17 -2 -15 -3 -133 -1 -143 1 -5 2 -13 1
-17 -2 -15 -3 -133 -1 -143 1 -5 2 -13 1 -17 -2 -15 -3 -133 -1 -143 1 -5 2
-13 1 -17 -2 -15 -3 -133 -1 -143 1 -5 2 -13 1 -17 -2 -14 -3 -133 -1 -143 2
-10 1 -38 -1 -151 -1 -29 2 -57 5 -63 4 -6 3 -11 -3 -11 -6 0 -7 -11 -2 -27 6
-26 6 -41 -2 -113 -2 -14 0 -40 4 -58 4 -17 3 -34 -1 -37 -5 -3 -5 -18 -2 -33
4 -15 6 -40 5 -57 -6 -66 -5 -133 1 -144 4 -6 3 -11 -3 -11 -6 0 -7 -11 -2
-27 6 -26 6 -41 -2 -113 -2 -14 0 -40 4 -58 4 -17 3 -34 -1 -37 -5 -3 -5 -18
-2 -33 4 -15 6 -40 5 -57 -6 -66 -5 -133 1 -144 4 -6 3 -11 -3 -11 -6 0 -7
-11 -2 -27 7 -30 6 -91 -3 -100 -2 -3 -1 -15 3 -27 5 -11 5 -30 1 -40 -4 -11
-4 -34 0 -50 l6 -31 282 0 282 -1 1 26 c1 33 1 4838 0 4866 -1 20 -41 43 -41
23 0 -5 -11 -4 -25 1 -15 6 -26 6 -30 -1 -4 -5 -11 -6 -17 -3 -16 10 -108 11
-108 1 0 -5 -5 -5 -11 -2 -16 11 -69 12 -69 2 0 -4 -5 -5 -11 -2 -16 11 -69
12 -69 2 0 -4 -5 -5 -11 -2 -15 10 -69 13 -69 4 0 -4 -16 -3 -35 1 -19 4 -37
4 -40 -1z"/>
<path d="M4845 8320 c-20 -8 -20 -12 -20 -2461 l0 -2454 285 0 285 0 1 2457
c0 1351 -3 2455 -6 2453 -3 -2 -12 0 -20 5 -8 5 -21 5 -31 -1 -11 -6 -20 -5
-24 1 -4 6 -15 6 -30 0 -14 -5 -25 -6 -25 -2 0 4 -13 7 -29 7 -16 0 -27 -4
-23 -9 3 -5 0 -6 -7 -2 -16 11 -131 13 -131 3 0 -5 -5 -5 -11 -2 -16 11 -69
12 -69 2 0 -4 -5 -5 -11 -2 -16 10 -69 12 -69 3 0 -4 -10 -4 -22 1 -13 5 -32
5 -43 1z"/>
<path d="M5950 8319 c0 -4 -9 -5 -20 -2 -18 5 -20 0 -20 -48 0 -117 -1 -4612
0 -4735 l0 -130 283 1 c155 1 284 3 287 4 4 1 5 4839 1 4899 -1 7 -5 11 -10 7
-5 -3 -12 -1 -16 5 -4 6 -11 7 -18 3 -15 -9 -57 -10 -63 -1 -3 4 -16 3 -29 -2
-15 -6 -27 -6 -30 0 -3 6 -15 6 -30 0 -14 -5 -25 -6 -25 -2 0 4 -29 7 -65 7
-36 0 -65 -4 -65 -8 0 -5 -5 -5 -11 -2 -16 11 -89 12 -89 2 0 -4 -5 -5 -11 -2
-15 10 -69 13 -69 4z"/>
<path d="M6993 8320 c-2 -3 -10 -5 -16 -5 -9 0 -12 -592 -12 -2456 l-1 -2455
286 0 285 1 0 2455 c0 2332 -1 2455 -17 2454 -10 -1 -18 1 -18 5 0 7 -119 6
-127 -2 -3 -3 -16 -2 -29 3 -14 6 -26 6 -29 0 -3 -6 -15 -6 -30 0 -15 6 -27 6
-30 -1 -4 -6 -13 -6 -23 0 -9 5 -26 5 -39 0 -14 -5 -23 -5 -23 1 0 5 -12 5
-29 0 -16 -4 -32 -6 -35 -3 -7 7 -106 10 -113 3z"/>
<path d="M8054 8322 c-12 -7 -17 -4911 -5 -4913 3 -1 131 -2 284 -3 188 -2
277 1 278 8 4 29 6 4873 2 4887 -4 18 -43 34 -43 18 0 -5 -11 -4 -25 1 -15 6
-27 6 -30 0 -3 -5 -11 -7 -18 -4 -21 8 -117 9 -117 2 0 -4 -10 -4 -22 1 -13 4
-35 5 -50 0 -15 -4 -30 -4 -33 1 -3 5 -16 5 -30 0 -14 -5 -25 -6 -25 -2 0 4
-13 7 -30 7 -16 0 -30 -4 -30 -8 0 -4 -7 -4 -17 1 -9 5 -29 6 -44 2 -15 -5
-29 -4 -31 1 -2 4 -8 5 -14 1z"/>
<path d="M3404 2912 l-41 -3 0 -283 -1 -284 42 0 c22 0 46 -1 51 -2 6 -1 14
-2 19 -1 23 5 268 2 273 -3 3 -2 15 -1 28 4 14 5 26 5 34 -3 6 -6 11 -7 11 -1
0 7 100 10 120 3 3 -1 9 -1 14 0 23 5 268 2 273 -3 3 -2 15 -1 28 4 14 5 26 5
34 -3 6 -6 11 -7 11 -1 0 7 100 10 120 3 3 -1 9 -1 14 0 23 5 268 2 273 -3 3
-2 15 -1 28 4 14 5 26 5 34 -3 6 -6 11 -7 11 -1 0 7 100 10 120 3 3 -1 9 -1
14 0 23 5 268 2 273 -3 3 -2 15 -1 28 4 14 5 26 5 34 -3 6 -6 11 -7 11 -2 0 8
100 11 120 4 3 -1 9 -1 14 0 23 5 268 2 273 -3 3 -2 15 -1 28 4 14 5 26 5 34
-3 6 -6 11 -7 11 -2 0 8 100 11 120 4 3 -1 9 -1 14 0 23 5 268 2 273 -3 3 -2
15 -1 28 4 14 5 26 5 34 -3 6 -6 11 -7 11 -2 0 8 100 11 120 4 3 -1 9 -1 14 0
23 5 268 2 273 -3 3 -2 15 -1 28 4 14 5 26 5 34 -3 6 -6 11 -7 11 -1 0 7 100
10 120 3 3 -1 9 -1 14 0 23 5 268 2 273 -3 3 -2 15 -1 28 4 14 5 26 5 34 -3 6
-6 11 -7 11 -1 0 7 100 10 120 3 3 -1 9 -1 14 0 23 5 268 2 273 -3 3 -2 15 -1
28 4 14 5 26 5 34 -3 6 -6 11 -7 11 -1 0 7 100 10 120 3 3 -1 9 -1 14 0 23 5
268 2 273 -3 3 -2 15 -1 28 4 14 5 26 5 34 -3 6 -6 11 -7 11 -1 0 7 100 10
120 3 3 -1 9 -1 14 0 23 5 268 2 273 -3 3 -2 15 -1 28 4 14 5 26 5 34 -3 6 -6
11 -7 11 -1 0 7 100 10 120 3 3 -1 9 -1 14 0 5 1 66 2 135 2 69 0 133 2 141 4
11 4 14 17 12 52 -3 50 -3 76 -1 167 1 30 -1 59 -5 64 -3 6 -2 13 3 17 6 3 7
16 3 28 -4 12 -6 36 -5 52 1 17 3 55 3 85 0 30 0 65 0 78 0 12 -6 22 -13 23
-46 2 -5591 3 -5623 1z"/>
<path d="M1725 2677 c6 -89 12 -142 15 -142 1 0 3 -9 4 -20 2 -16 16 -85 21
-105 2 -9 38 -125 41 -130 8 -20 17 -56 15 -59 -2 -2 2 -7 9 -11 6 -4 12 -13
14 -21 2 -14 29 -67 68 -137 49 -89 130 -193 218 -283 85 -87 217 -199 234
-199 4 0 16 -9 28 -20 12 -10 25 -17 29 -14 4 2 11 0 14 -6 11 -17 184 -97
280 -128 85 -28 178 -50 235 -56 14 -1 31 -5 37 -9 15 -9 6577 -3 6628 6 69
13 233 57 288 77 51 20 237 110 247 120 3 3 32 23 65 45 33 22 76 53 95 69 63
53 215 212 245 257 17 24 33 46 38 47 4 2 7 9 7 17 0 7 6 18 14 24 19 16 119
221 144 296 30 88 53 173 58 214 12 88 14 109 18 161 2 30 5 60 6 65 8 34 3
34 -281 32 l-281 -2 -3 -55 c-5 -76 -13 -122 -25 -156 -6 -16 -11 -31 -11 -34
1 -3 -6 -27 -15 -55 -54 -162 -204 -346 -362 -442 -50 -30 -162 -83 -176 -83
-7 0 -17 -5 -24 -12 -7 -7 -12 -9 -12 -6 0 3 -24 -1 -52 -10 -49 -15 -318 -17
-3306 -19 -1880 -2 -3261 1 -3270 6 -9 5 -33 11 -52 14 -187 29 -416 183 -536
362 -34 50 -88 147 -92 165 -1 5 -5 18 -22 70 -16 47 -33 135 -36 180 -1 25
-3 52 -3 61 -1 15 -29 17 -282 18 l-281 0 7 -92z"/>
<path d="M3761 833 c-5 -17 -6 -48 -1 -68 4 -19 4 -37 0 -40 -5 -3 -5 -18 -2
-33 4 -15 6 -40 5 -57 -6 -66 -5 -133 1 -144 4 -6 3 -11 -3 -11 -6 0 -7 -11
-2 -27 6 -26 6 -41 -2 -113 -2 -14 0 -40 4 -58 4 -17 3 -34 -1 -37 -5 -3 -5
-18 -2 -33 4 -15 6 -40 5 -57 -6 -66 -5 -133 1 -144 11 -17 566 -15 567 2 1
15 1 816 0 837 -1 14 -35 16 -281 16 l-280 0 -9 -33z"/>
<path d="M4829 860 c-1 -3 -2 -197 -3 -432 l-2 -428 287 0 286 0 0 218 c1 119
2 226 2 237 1 11 0 108 -1 215 l-3 195 -282 0 c-156 1 -284 -2 -284 -5z"/>
<path d="M5910 780 c-1 -147 -1 -570 0 -677 l0 -103 288 0 287 0 -2 417 c-1
230 -2 425 -2 433 -1 14 -38 16 -286 16 l-285 0 0 -86z"/>
<path d="M6969 860 c-1 -3 -2 -197 -3 -433 l-2 -427 286 0 286 0 -1 423 c-1
232 -3 427 -3 433 -2 10 -561 15 -563 4z"/>
<path d="M8048 860 c-1 -3 -2 -197 -3 -432 l-2 -428 286 0 286 0 0 433 1 433
-283 0 c-156 0 -284 -3 -285 -6z"/>
</g>
</svg>
