<svg width="61" height="78" viewBox="0 0 61 78" fill="none" xmlns="http://www.w3.org/2000/svg">
<path fill-rule="evenodd" clip-rule="evenodd" d="M0.25 22.8236C0.25 17.6837 4.5031 13.5862 9.66352 13.5862H50.7765C55.9369 13.5862 60.19 17.6837 60.19 22.8236H56.69C56.69 19.6929 54.0811 17.0862 50.7765 17.0862H9.66352C6.35892 17.0862 3.75 19.6929 3.75 22.8236H0.25Z" fill="url(#paint0_radial_26_38)"/>
<path fill-rule="evenodd" clip-rule="evenodd" d="M11.2634 69.6907C6.28994 69.6907 2.25 65.6671 2.25 60.6953H5.75C5.75 63.7259 8.21472 66.1907 11.2634 66.1907H50.2295C53.2782 66.1907 55.7429 63.7259 55.7429 60.6953H59.2429C59.2429 65.6671 55.203 69.6907 50.2295 69.6907H11.2634Z" fill="url(#paint1_radial_26_38)"/>
<path d="M18.5782 26H15V56.7272H18.5782V26Z" fill="url(#paint2_radial_26_38)"/>
<path d="M25.2317 26H21.6534V56.7272H25.2317V26Z" fill="url(#paint3_radial_26_38)"/>
<path d="M32.0104 26H28.4321V56.7272H32.0104V26Z" fill="url(#paint4_radial_26_38)"/>
<path d="M38.6003 26H35.0221V56.7272H38.6003V26Z" fill="url(#paint5_radial_26_38)"/>
<path d="M45.3489 26H41.7706V56.7272H45.3489V26Z" fill="url(#paint6_radial_26_38)"/>
<path d="M18.5782 72.5918H15V78H18.5782V72.5918Z" fill="url(#paint7_radial_26_38)"/>
<path d="M25.2317 72.5918H21.6534V78H25.2317V72.5918Z" fill="url(#paint8_radial_26_38)"/>
<path d="M32.0105 72.5918H28.4323V78H32.0105V72.5918Z" fill="url(#paint9_radial_26_38)"/>
<path d="M38.602 72.5918H35.0238V78H38.602V72.5918Z" fill="url(#paint10_radial_26_38)"/>
<path d="M45.349 72.5918H41.7708V78H45.349V72.5918Z" fill="url(#paint11_radial_26_38)"/>
<path d="M25.23 0H21.6517V5.40822H25.23V0Z" fill="url(#paint12_radial_26_38)"/>
<path d="M32.0104 0H28.4321V5.40822H32.0104V0Z" fill="url(#paint13_radial_26_38)"/>
<path d="M38.6002 0H35.022V5.40822H38.6002V0Z" fill="url(#paint14_radial_26_38)"/>
<path d="M48.4865 23.5694V20H13V23.5694H48.4865Z" fill="url(#paint15_radial_26_38)"/>
<path d="M48 63.3699V59.8005H12.5136V63.3699H48Z" fill="url(#paint16_radial_26_38)"/>
<path d="M48 10.8438V7.27441H12.5136V10.8438H48Z" fill="url(#paint17_radial_26_38)"/>
<defs>
<radialGradient id="paint0_radial_26_38" cx="0" cy="0" r="1" gradientUnits="userSpaceOnUse" gradientTransform="translate(30.22 19.0799) rotate(90) scale(3.7437 28.22)">
<stop stop-color="#DBBC80"/>
<stop offset="1" stop-color="#AB8219"/>
</radialGradient>
<radialGradient id="paint1_radial_26_38" cx="0" cy="0" r="1" gradientUnits="userSpaceOnUse" gradientTransform="translate(30.7464 64.318) rotate(90) scale(3.62271 26.7464)">
<stop stop-color="#DBBC80"/>
<stop offset="1" stop-color="#AB8219"/>
</radialGradient>
<radialGradient id="paint2_radial_26_38" cx="0" cy="0" r="1" gradientUnits="userSpaceOnUse" gradientTransform="translate(16.7891 41.3636) rotate(90) scale(15.3636 1.78911)">
<stop stop-color="#DBBC80"/>
<stop offset="1" stop-color="#AB8219"/>
</radialGradient>
<radialGradient id="paint3_radial_26_38" cx="0" cy="0" r="1" gradientUnits="userSpaceOnUse" gradientTransform="translate(23.4426 41.3636) rotate(90) scale(15.3636 1.78911)">
<stop stop-color="#DBBC80"/>
<stop offset="1" stop-color="#AB8219"/>
</radialGradient>
<radialGradient id="paint4_radial_26_38" cx="0" cy="0" r="1" gradientUnits="userSpaceOnUse" gradientTransform="translate(30.2212 41.3636) rotate(90) scale(15.3636 1.78911)">
<stop stop-color="#DBBC80"/>
<stop offset="1" stop-color="#AB8219"/>
</radialGradient>
<radialGradient id="paint5_radial_26_38" cx="0" cy="0" r="1" gradientUnits="userSpaceOnUse" gradientTransform="translate(36.8112 41.3636) rotate(90) scale(15.3636 1.78911)">
<stop stop-color="#DBBC80"/>
<stop offset="1" stop-color="#AB8219"/>
</radialGradient>
<radialGradient id="paint6_radial_26_38" cx="0" cy="0" r="1" gradientUnits="userSpaceOnUse" gradientTransform="translate(43.5597 41.3636) rotate(90) scale(15.3636 1.78911)">
<stop stop-color="#DBBC80"/>
<stop offset="1" stop-color="#AB8219"/>
</radialGradient>
<radialGradient id="paint7_radial_26_38" cx="0" cy="0" r="1" gradientUnits="userSpaceOnUse" gradientTransform="translate(16.7891 75.2959) rotate(90) scale(2.70411 1.78911)">
<stop stop-color="#DBBC80"/>
<stop offset="1" stop-color="#AB8219"/>
</radialGradient>
<radialGradient id="paint8_radial_26_38" cx="0" cy="0" r="1" gradientUnits="userSpaceOnUse" gradientTransform="translate(23.4426 75.2959) rotate(90) scale(2.70411 1.78911)">
<stop stop-color="#DBBC80"/>
<stop offset="1" stop-color="#AB8219"/>
</radialGradient>
<radialGradient id="paint9_radial_26_38" cx="0" cy="0" r="1" gradientUnits="userSpaceOnUse" gradientTransform="translate(30.2214 75.2959) rotate(90) scale(2.70411 1.78911)">
<stop stop-color="#DBBC80"/>
<stop offset="1" stop-color="#AB8219"/>
</radialGradient>
<radialGradient id="paint10_radial_26_38" cx="0" cy="0" r="1" gradientUnits="userSpaceOnUse" gradientTransform="translate(36.8129 75.2959) rotate(90) scale(2.70411 1.78911)">
<stop stop-color="#DBBC80"/>
<stop offset="1" stop-color="#AB8219"/>
</radialGradient>
<radialGradient id="paint11_radial_26_38" cx="0" cy="0" r="1" gradientUnits="userSpaceOnUse" gradientTransform="translate(43.5599 75.2959) rotate(90) scale(2.70411 1.78911)">
<stop stop-color="#DBBC80"/>
<stop offset="1" stop-color="#AB8219"/>
</radialGradient>
<radialGradient id="paint12_radial_26_38" cx="0" cy="0" r="1" gradientUnits="userSpaceOnUse" gradientTransform="translate(23.4408 2.70411) rotate(90) scale(2.70411 1.78911)">
<stop stop-color="#DBBC80"/>
<stop offset="1" stop-color="#AB8219"/>
</radialGradient>
<radialGradient id="paint13_radial_26_38" cx="0" cy="0" r="1" gradientUnits="userSpaceOnUse" gradientTransform="translate(30.2212 2.70411) rotate(90) scale(2.70411 1.78911)">
<stop stop-color="#DBBC80"/>
<stop offset="1" stop-color="#AB8219"/>
</radialGradient>
<radialGradient id="paint14_radial_26_38" cx="0" cy="0" r="1" gradientUnits="userSpaceOnUse" gradientTransform="translate(36.8111 2.70411) rotate(90) scale(2.70411 1.78911)">
<stop stop-color="#DBBC80"/>
<stop offset="1" stop-color="#AB8219"/>
</radialGradient>
<radialGradient id="paint15_radial_26_38" cx="0" cy="0" r="1" gradientUnits="userSpaceOnUse" gradientTransform="translate(30.7432 21.7847) rotate(-180) scale(17.7432 1.78468)">
<stop stop-color="#DBBC80"/>
<stop offset="1" stop-color="#AB8219"/>
</radialGradient>
<radialGradient id="paint16_radial_26_38" cx="0" cy="0" r="1" gradientUnits="userSpaceOnUse" gradientTransform="translate(30.2568 61.5852) rotate(180) scale(17.7432 1.78469)">
<stop stop-color="#DBBC80"/>
<stop offset="1" stop-color="#AB8219"/>
</radialGradient>
<radialGradient id="paint17_radial_26_38" cx="0" cy="0" r="1" gradientUnits="userSpaceOnUse" gradientTransform="translate(30.2568 9.0591) rotate(-180) scale(17.7432 1.78468)">
<stop stop-color="#DBBC80"/>
<stop offset="1" stop-color="#AB8219"/>
</radialGradient>
</defs>
</svg>
